<svg width="90" height="112" viewBox="0 0 90 112" fill="none" xmlns="http://www.w3.org/2000/svg">
<rect width="90" height="90" rx="4" fill="#EDEDED"/>
<path d="M42.7566 50.8235C41.1748 50.8235 39.8879 51.9782 39.8879 53.3974C39.8879 54.8168 41.1748 55.9715 42.7566 55.9715C44.3381 55.9715 45.625 54.8168 45.625 53.3974C45.625 51.9782 44.3381 50.8235 42.7566 50.8235ZM42.7566 54.8498C41.864 54.8498 41.1379 54.1983 41.1379 53.3974C41.1379 52.5967 41.864 51.9451 42.7566 51.9451C43.6489 51.9451 44.375 52.5967 44.375 53.3974C44.375 54.1983 43.6489 54.8498 42.7566 54.8498Z" fill="black"/>
<path d="M54.0725 48.8785C52.8699 48.8785 51.8914 49.7564 51.8914 50.8355C51.8914 51.9147 52.8699 52.7925 54.0725 52.7925C55.2751 52.7925 56.2534 51.9147 56.2534 50.8355C56.2534 49.7564 55.2751 48.8785 54.0725 48.8785ZM54.0725 51.6711C53.5591 51.6711 53.1414 51.2962 53.1414 50.8355C53.1414 50.3748 53.5591 50.0002 54.0725 50.0002C54.5857 50.0002 55.0034 50.375 55.0034 50.8355C55.0034 51.2962 54.5857 51.6711 54.0725 51.6711Z" fill="black"/>
<path d="M35.8445 45.9699C34.7156 45.9699 33.7974 46.794 33.7974 47.807C33.7974 48.8198 34.7156 49.644 35.8445 49.644C36.9731 49.644 37.8916 48.8198 37.8916 47.807C37.8916 46.794 36.9731 45.9699 35.8445 45.9699ZM35.8445 48.5223C35.4048 48.5223 35.0474 48.2014 35.0474 47.807C35.0474 47.4127 35.4048 47.0918 35.8445 47.0918C36.2842 47.0918 36.6416 47.4127 36.6416 47.807C36.6416 48.2014 36.2839 48.5223 35.8445 48.5223Z" fill="black"/>
<path d="M52.9688 38.0249C54.1118 38.0249 55.0417 37.1904 55.0417 36.1647C55.0417 35.139 54.1118 34.3046 52.9688 34.3046C51.8257 34.3046 50.8958 35.139 50.8958 36.1647C50.8958 37.1904 51.8257 38.0249 52.9688 38.0249ZM52.9688 35.4262C53.4226 35.4262 53.7917 35.7575 53.7917 36.1647C53.7917 36.572 53.4226 36.9032 52.9688 36.9032C52.5149 36.9032 52.1458 36.572 52.1458 36.1647C52.1458 35.7575 52.5149 35.4262 52.9688 35.4262Z" fill="black"/>
<path d="M60.9646 42.9195L60.8989 42.5017C60.2974 38.6692 58.4951 35.0974 55.6865 32.1719C54.5083 30.9446 52.5212 30.6416 50.9619 31.4518L42.4714 35.8626C42.249 35.9783 42.1279 36.2042 42.1665 36.4322C42.2449 36.8947 42.0791 37.349 41.7114 37.679C41.1282 38.2023 40.2026 38.2492 39.5591 37.7881C39.3579 37.6439 39.0786 37.6251 38.856 37.741L30.8088 41.9216C30.2771 42.1976 29.8418 42.5873 29.5312 43.0446C29.4336 43.1267 29.3657 43.2365 29.3428 43.3602C29.1211 43.785 29 44.2541 29 44.7365V51.3843C29 51.6941 29.2798 51.9451 29.625 51.9451C30.5173 51.9451 31.2434 52.5967 31.2434 53.3974C31.2434 54.1983 30.5173 54.8498 29.625 54.8498C29.2798 54.8498 29 55.1009 29 55.4107V55.7472C29 57.5407 30.6262 59 32.625 59H50.7253C51.0706 59 51.3503 58.7489 51.3503 58.4392C51.3503 57.6382 52.0764 56.9867 52.9688 56.9867C53.8611 56.9867 54.5872 57.6382 54.5872 58.4392C54.5872 58.7489 54.8669 59 55.2122 59H57.375C59.3738 59 61 57.5407 61 55.7472V43.3732C61 43.2218 60.988 43.0693 60.9646 42.9195ZM57.375 57.8783H55.7688C55.4827 56.7278 54.3357 55.865 52.9688 55.865C51.6018 55.865 50.4548 56.7278 50.1687 57.8783H32.625C31.376 57.8783 30.3489 57.0086 30.2568 55.9084C31.5354 55.6495 32.4937 54.622 32.4937 53.3974C32.4937 52.1708 31.5322 51.1416 30.25 50.885V44.7365C30.25 44.4867 30.3003 44.2429 30.3926 44.0142H34.646C34.991 44.0142 35.271 43.7631 35.271 43.4534C35.271 43.1436 34.991 42.8925 34.646 42.8925H31.4346C31.4346 42.8923 31.4348 42.8923 31.4351 42.8923L39.144 38.8874C40.25 39.457 41.667 39.3049 42.5952 38.472C43.1326 37.9898 43.4316 37.3328 43.4348 36.6583L51.5881 32.4225C52.6277 31.8825 53.9531 32.0849 54.7395 32.904C57.3914 35.6661 59.0933 39.039 59.6611 42.6579L59.698 42.8925H45.8992C46.1572 42.2397 46.8518 41.7709 47.6667 41.7709C48.012 41.7709 48.2917 41.5198 48.2917 41.21C48.2917 40.9003 48.012 40.6492 47.6667 40.6492C46.1575 40.6492 44.895 41.614 44.6045 42.8925H40.0625C39.7173 42.8925 39.4375 43.1436 39.4375 43.4534C39.4375 43.7631 39.7173 44.0142 40.0625 44.0142H44.6045C44.895 45.2925 46.1575 46.2575 47.6667 46.2575C49.1758 46.2575 50.4385 45.2925 50.7288 44.0142H59.75V55.7472C59.75 56.9223 58.6846 57.8783 57.375 57.8783ZM49.4341 44.0142C49.176 44.667 48.4814 45.1358 47.6665 45.1358C46.8518 45.1358 46.1572 44.667 45.8992 44.0142H49.4341Z" fill="black"/>
<path d="M37.4375 42.8925C37.2732 42.8925 37.1118 42.9525 36.9956 43.0568C36.8794 43.1611 36.8125 43.3059 36.8125 43.4533C36.8125 43.6008 36.8794 43.7456 36.9956 43.8499C37.1118 43.9542 37.2732 44.0142 37.4375 44.0142C37.6018 44.0142 37.7632 43.9542 37.8794 43.8499C37.9956 43.7456 38.0625 43.6008 38.0625 43.4533C38.0625 43.3059 37.9956 43.1611 37.8794 43.0568C37.7632 42.9525 37.6018 42.8925 37.4375 42.8925Z" fill="black"/>
<path d="M21.582 109V100.545H20.3574L17.4629 107.541H17.3691L14.4746 100.545H13.25V109H14.2344V102.543H14.3047L16.9707 108.941H17.8613L20.5273 102.543H20.5977V109H21.582ZM26.3223 109.111C28.1211 109.111 29.2344 107.869 29.2344 105.842C29.2344 103.809 28.1211 102.572 26.3223 102.572C24.5234 102.572 23.4102 103.809 23.4102 105.842C23.4102 107.869 24.5234 109.111 26.3223 109.111ZM26.3223 108.203C25.127 108.203 24.4531 107.336 24.4531 105.842C24.4531 104.342 25.127 103.48 26.3223 103.48C27.5176 103.48 28.1914 104.342 28.1914 105.842C28.1914 107.336 27.5176 108.203 26.3223 108.203ZM36.9863 110.67V108.156H35.9785V102.684H34.9707V108.156H31.9355V102.684H30.9277V109H36.0371V110.67H36.9863ZM40.2617 108.227C39.5293 108.227 38.9844 107.852 38.9844 107.207C38.9844 106.574 39.4062 106.24 40.3672 106.176L42.0664 106.064V106.645C42.0664 107.547 41.2988 108.227 40.2617 108.227ZM40.0742 109.111C40.918 109.111 41.6094 108.742 42.0195 108.068H42.1133V109H43.0742V104.676C43.0742 103.363 42.2129 102.572 40.6719 102.572C39.3242 102.572 38.3281 103.24 38.1934 104.254H39.2129C39.3535 103.756 39.8809 103.469 40.6367 103.469C41.5801 103.469 42.0664 103.896 42.0664 104.676V105.25L40.2441 105.361C38.7734 105.449 37.9414 106.1 37.9414 107.23C37.9414 108.385 38.8496 109.111 40.0742 109.111ZM48.125 102.572C47.2637 102.572 46.5078 103.012 46.1035 103.738H46.0098V102.684H45.0488V111.109H46.0566V108.051H46.1504C46.4961 108.719 47.2227 109.111 48.125 109.111C49.7305 109.111 50.7793 107.816 50.7793 105.842C50.7793 103.855 49.7363 102.572 48.125 102.572ZM47.8848 108.203C46.748 108.203 46.0273 107.289 46.0273 105.842C46.0273 104.389 46.748 103.48 47.8906 103.48C49.0449 103.48 49.7363 104.365 49.7363 105.842C49.7363 107.318 49.0449 108.203 47.8848 108.203ZM55.0039 103.463C56.0059 103.463 56.6738 104.201 56.6973 105.32H53.2168C53.293 104.201 53.9961 103.463 55.0039 103.463ZM56.668 107.365C56.4043 107.922 55.8535 108.221 55.0391 108.221C53.9668 108.221 53.2695 107.43 53.2168 106.182V106.135H57.7578V105.748C57.7578 103.785 56.7207 102.572 55.0156 102.572C53.2812 102.572 52.168 103.861 52.168 105.848C52.168 107.846 53.2637 109.111 55.0156 109.111C56.3984 109.111 57.3711 108.449 57.6758 107.365H56.668ZM60.793 106.229L60.9922 103.527H63.2012V109H64.209V102.684H60.0781L59.832 106.205C59.75 107.377 59.5098 108.109 58.8828 108.109C58.7363 108.109 58.6191 108.08 58.5664 108.062V108.988C58.6367 109.018 58.7539 109.053 58.9355 109.053C60.248 109.053 60.6641 107.963 60.793 106.229ZM67.7305 106.229L67.9297 103.527H70.1387V109H71.1465V102.684H67.0156L66.7695 106.205C66.6875 107.377 66.4473 108.109 65.8203 108.109C65.6738 108.109 65.5566 108.08 65.5039 108.062V108.988C65.5742 109.018 65.6914 109.053 65.873 109.053C67.1855 109.053 67.6016 107.963 67.7305 106.229ZM75.1016 108.227C74.3691 108.227 73.8242 107.852 73.8242 107.207C73.8242 106.574 74.2461 106.24 75.207 106.176L76.9062 106.064V106.645C76.9062 107.547 76.1387 108.227 75.1016 108.227ZM74.9141 109.111C75.7578 109.111 76.4492 108.742 76.8594 108.068H76.9531V109H77.9141V104.676C77.9141 103.363 77.0527 102.572 75.5117 102.572C74.1641 102.572 73.168 103.24 73.0332 104.254H74.0527C74.1934 103.756 74.7207 103.469 75.4766 103.469C76.4199 103.469 76.9062 103.896 76.9062 104.676V105.25L75.084 105.361C73.6133 105.449 72.7812 106.1 72.7812 107.23C72.7812 108.385 73.6895 109.111 74.9141 109.111Z" fill="black"/>
</svg>
